<svg xmlns="http://www.w3.org/2000/svg" width="265" height="241" viewBox="0 0 265 241" fill="none">
  <path d="M0 0C8.02716 0 15.8391 0 24.012 0C24.012 36.1149 24.012 72.0424 24.012 108.178C54.3707 108.178 84.3684 108.178 114.651 108.178C93.1593 86.7842 71.8902 65.5985 50.8293 44.635C56.8983 38.5869 62.4951 32.9971 68.0988 27.4073C88.9097 48.2736 110.123 69.5496 131.344 90.8255C131.663 90.6727 131.976 90.5269 132.295 90.3741C132.295 60.3281 132.295 30.289 132.295 0.0347213C140.6 0.0347213 148.419 0.0347213 156.571 0.0347213C156.571 30.1085 156.571 60.1476 156.571 90.9366C178.312 69.0704 199.512 47.7389 220.656 26.463C226.781 32.6638 232.28 38.2328 238.002 44.0309C216.955 64.9735 195.61 86.2078 174.264 107.449C174.431 107.734 174.59 108.018 174.757 108.303C204.755 108.303 234.759 108.303 265 108.303C265 116.476 265 124.295 265 132.433C234.995 132.433 204.956 132.433 174.708 132.433C196.276 153.903 217.573 175.11 238.78 196.226C232.329 202.587 226.704 208.135 220.927 213.829C200.012 192.844 178.819 171.582 156.856 149.55C156.856 180.679 156.856 210.669 156.856 240.917C148.662 240.917 140.85 240.917 132.587 240.917C132.587 210.912 132.587 180.818 132.587 150.258C110.943 171.971 89.7568 193.219 68.6821 214.356C62.6687 208.163 57.1552 202.496 51.3293 196.504C72.0916 175.846 93.4302 154.612 115.352 132.801C84.4586 132.801 54.5443 132.801 24.144 132.801C24.144 168.798 24.144 204.809 24.144 241C15.846 241 8.02716 241 0 241C0 160.708 0 80.5625 0 0Z" fill="white"/>
</svg>