<svg xmlns="http://www.w3.org/2000/svg" width="380" height="127" viewBox="0 0 380 127" fill="none">
  <path d="M379.645 47.9778C379.645 58.2478 379.645 68.3478 379.645 79.0578C377.885 79.1678 376.145 79.3578 374.395 79.3578C251.445 79.3678 128.485 79.3478 5.53539 79.4678C1.04539 79.4678 -0.15461 78.1778 0.0153902 73.8278C0.34539 65.3678 0.115389 56.8878 0.115389 47.9678C126.665 47.9778 252.845 47.9778 379.645 47.9778Z" fill="white"/>
  <path d="M189.985 126.388C189.985 115.848 189.985 105.728 189.985 95.2278C253.185 95.2278 316.195 95.2278 379.575 95.2278C379.575 105.578 379.575 115.808 379.575 126.388C316.515 126.388 253.485 126.388 189.985 126.388Z" fill="white"/>
  <path d="M189.825 0.0376583C189.825 10.8877 189.825 21.0077 189.825 31.4977C126.745 31.4977 63.8554 31.4977 0.115363 31.4977C0.115363 23.9377 0.0553648 16.3477 0.125365 8.75766C0.225365 -1.38234 -1.24464 0.0776876 8.85536 0.0676876C67.1754 0.0176876 125.495 0.0376583 183.815 0.0376583C185.625 0.0376583 187.425 0.0376583 189.825 0.0376583Z" fill="white"/>
</svg>