<svg xmlns="http://www.w3.org/2000/svg" width="199" height="345" viewBox="0 0 199 345" fill="none">
  <path d="M0.227661 191.927C-0.968944 84.0341 93.9617 -2.17379 198.973 0.0417674C198.973 25.3715 198.973 50.7193 198.973 76.3475C158.433 77.8577 125.146 93.5565 100.996 126.392C87.054 145.355 80.1463 166.887 79.8925 191.331C115.945 166.164 155.288 153.503 199 153.25C199 179.077 199 204.443 199 230.18C166.927 230.804 138.807 241.339 115.564 263.368C92.33 285.379 80.518 312.653 79.7384 345C53.259 345 26.9337 345 0.00103108 345C-0.098686 314.778 7.03562 286.41 20.8691 259.624C34.6482 232.929 53.9752 210.918 77.6534 191.936C51.9536 191.927 26.2447 191.927 0.227661 191.927Z" fill="white"/>
</svg>