<svg xmlns="http://www.w3.org/2000/svg" width="18" height="18" viewBox="0 0 18 18" fill="">
  <path fill-rule="evenodd" clip-rule="evenodd" d="M6.5 0.875C6.66576 0.875 6.82473 0.940848 6.94194 1.05806C7.05915 1.17527 7.125 1.33424 7.125 1.5V2.755C8.61366 2.77743 10.1 2.88064 11.5775 3.06417C11.659 3.07434 11.7376 3.10047 11.809 3.14105C11.8804 3.18163 11.9431 3.23588 11.9935 3.30068C12.0439 3.36549 12.0811 3.43959 12.1028 3.51876C12.1246 3.59793 12.1306 3.68061 12.1204 3.76208C12.1102 3.84356 12.0841 3.92223 12.0435 3.99361C12.0029 4.06498 11.9487 4.12767 11.8839 4.17808C11.8191 4.2285 11.745 4.26566 11.6658 4.28743C11.5867 4.30921 11.504 4.31518 11.4225 4.305C10.8725 4.23583 10.32 4.17917 9.76416 4.13333C9.27829 6.02974 8.43888 7.81741 7.29 9.4025C7.55416 9.7225 7.83166 10.03 8.12166 10.325C8.17923 10.3835 8.22469 10.4529 8.25547 10.529C8.28625 10.6051 8.30173 10.6865 8.30103 10.7686C8.30033 10.8507 8.28347 10.9319 8.25141 11.0075C8.21935 11.0831 8.17271 11.1516 8.11416 11.2092C8.05562 11.2667 7.9863 11.3122 7.91018 11.343C7.83406 11.3737 7.75263 11.3892 7.67053 11.3885C7.58842 11.3878 7.50726 11.371 7.43168 11.3389C7.35609 11.3069 7.28756 11.2602 7.23 11.2017C6.97764 10.9448 6.73416 10.6794 6.5 10.4058C5.18448 11.9432 3.58396 13.2115 1.78666 14.1408C1.71372 14.1785 1.63409 14.2014 1.55229 14.2083C1.4705 14.2151 1.38816 14.2058 1.30996 14.1809C1.23177 14.1559 1.15925 14.1158 1.09656 14.0628C1.03387 14.0098 0.982225 13.945 0.94458 13.8721C0.906934 13.7991 0.884024 13.7195 0.877156 13.6377C0.870288 13.5559 0.879598 13.4736 0.904554 13.3954C0.929509 13.3172 0.969622 13.2447 1.0226 13.182C1.07558 13.1193 1.14039 13.0676 1.21333 13.03C2.94134 12.1362 4.47086 10.9023 5.71 9.4025C4.98297 8.39873 4.37815 7.3119 3.90833 6.165C3.84926 6.01235 3.85244 5.84262 3.91717 5.69229C3.9819 5.54195 4.10302 5.42301 4.2545 5.36102C4.40599 5.29902 4.57575 5.29893 4.7273 5.36076C4.87885 5.42259 5.0001 5.5414 5.065 5.69167C5.4482 6.62698 5.92921 7.51916 6.5 8.35333C7.39899 7.03945 8.0724 5.58474 8.4925 4.04917C6.18443 3.93469 3.87079 4.02029 1.5775 4.305C1.41295 4.32555 1.24698 4.2799 1.1161 4.17808C0.985212 4.07627 0.900134 3.92663 0.87958 3.76208C0.859026 3.59754 0.904678 3.43157 1.00649 3.30068C1.10831 3.1698 1.25795 3.08472 1.4225 3.06417C2.89994 2.88028 4.38631 2.77707 5.875 2.755V1.5C5.875 1.33424 5.94085 1.17527 6.05805 1.05806C6.17527 0.940848 6.33424 0.875 6.5 0.875ZM12.125 6.5C12.244 6.49995 12.3605 6.53389 12.4609 6.59781C12.5613 6.66173 12.6414 6.75298 12.6917 6.86083L17.0667 16.2358C17.1014 16.3102 17.121 16.3908 17.1246 16.4728C17.1282 16.5548 17.1156 16.6367 17.0875 16.7139C17.0594 16.791 17.0164 16.8619 16.9609 16.9224C16.9054 16.983 16.8386 17.032 16.7642 17.0667C16.6139 17.1367 16.4419 17.1442 16.2861 17.0875C16.1303 17.0308 16.0034 16.9145 15.9333 16.7642L14.935 14.625H9.315L8.31666 16.7642C8.2466 16.9145 8.11971 17.0308 7.9639 17.0875C7.80808 17.1442 7.63612 17.1367 7.48583 17.0667C7.33554 16.9966 7.21924 16.8697 7.16251 16.7139C7.10578 16.5581 7.11327 16.3861 7.18333 16.2358L11.5583 6.86083C11.6086 6.75298 11.6887 6.66173 11.7891 6.59781C11.8894 6.53389 12.006 6.49995 12.125 6.5ZM9.89833 13.375H14.3517L12.125 8.60333L9.89833 13.375Z" fill="#007BFF"/>
</svg>